<?xml version="1.0" standalone="no"?>
<!DOCTYPE svg PUBLIC "-//W3C//DTD SVG 20010904//EN"
 "http://www.w3.org/TR/2001/REC-SVG-20010904/DTD/svg10.dtd">
<svg version="1.0" xmlns="http://www.w3.org/2000/svg"
 width="200.000000pt" height="200.000000pt" viewBox="0 0 200.000000 200.000000"
 preserveAspectRatio="xMidYMid meet">
<metadata>
Created by potrace 1.11, written by Peter Selinger 2001-2013
</metadata>
<g transform="translate(0.000000,200.000000) scale(0.100000,-0.100000)"
fill="#000000" stroke="none">
<path d="M0 1000 l0 -1000 1000 0 1000 0 0 1000 0 1000 -1000 0 -1000 0 0
-1000z m935 626 c200 -2 283 -7 320 -18 157 -47 253 -143 285 -288 19 -85 9
-242 -20 -315 -33 -85 -113 -162 -205 -200 -73 -29 -88 -31 -395 -38 l-95 -2
-3 -198 -2 -197 -190 0 -190 0 -2 631 c-2 347 -2 631 -1 632 1 1 52 1 115 0
62 -2 235 -4 383 -7z m44 -1008 c-2 -50 1 -83 7 -85 6 -2 25 15 43 37 28 35
36 40 72 38 l40 -1 -36 -37 c-19 -20 -35 -42 -35 -48 0 -7 17 -39 38 -70 21
-31 42 -63 46 -69 5 -10 -5 -13 -41 -13 -47 0 -49 1 -73 45 -14 25 -27 45 -30
45 -21 -1 -34 -23 -32 -54 3 -36 2 -36 -38 -36 l-40 0 0 165 0 165 41 0 41 0
-3 -82z m322 50 c1 -18 0 -43 -1 -55 -2 -28 15 -29 60 -6 32 15 35 15 69 -3
49 -26 62 -57 58 -133 -3 -55 -7 -67 -31 -87 -32 -29 -76 -31 -118 -6 -23 13
-32 14 -35 5 -3 -7 -20 -13 -39 -13 l-34 0 0 165 0 165 35 0 c33 0 35 -2 36
-32z"/>
<path d="M1440 1464 c0 -5 7 -18 15 -28 12 -16 15 -17 15 -4 0 8 -7 21 -15 28
-8 7 -15 9 -15 4z"/>
<path d="M1500 1358 c0 -7 5 -20 10 -28 8 -12 10 -11 10 7 0 12 -4 25 -10 28
-5 3 -10 0 -10 -7z"/>
<path d="M1441 1344 c0 -11 3 -14 6 -6 3 7 2 16 -1 19 -3 4 -6 -2 -5 -13z"/>
<path d="M818 1205 c-2 -112 -1 -136 12 -141 27 -11 239 -3 278 10 57 20 85
67 80 138 -8 105 -50 128 -237 128 l-130 0 -3 -135z"/>
<path d="M1170 1090 c0 -5 5 -10 10 -10 6 0 10 5 10 10 0 6 -4 10 -10 10 -5 0
-10 -4 -10 -10z"/>
<path d="M1185 1060 c-3 -5 -1 -10 4 -10 6 0 11 5 11 10 0 6 -2 10 -4 10 -3 0
-8 -4 -11 -10z"/>
<path d="M1028 1043 c7 -3 16 -2 19 1 4 3 -2 6 -13 5 -11 0 -14 -3 -6 -6z"/>
<path d="M1065 581 c-3 -5 -2 -12 3 -15 5 -3 9 1 9 9 0 17 -3 19 -12 6z"/>
<path d="M1030 505 c-11 -13 -10 -14 4 -9 9 3 16 10 16 15 0 13 -6 11 -20 -6z"/>
<path d="M1096 404 c-9 -23 -2 -28 13 -10 7 8 8 17 3 20 -6 3 -13 -1 -16 -10z"/>
<path d="M1273 660 c-1 -11 2 -22 8 -25 5 -4 8 3 6 14 -4 28 -12 34 -14 11z"/>
<path d="M1430 565 c-11 -13 -10 -14 4 -9 9 3 16 10 16 15 0 13 -6 11 -20 -6z"/>
<path d="M1328 550 c-42 -25 -28 -125 19 -136 37 -10 63 20 63 72 0 62 -36 90
-82 64z"/>
<path d="M1430 509 c0 -5 5 -7 10 -4 6 3 10 8 10 11 0 2 -4 4 -10 4 -5 0 -10
-5 -10 -11z"/>
<path d="M1410 420 c0 -5 5 -10 10 -10 6 0 10 5 10 10 0 6 -4 10 -10 10 -5 0
-10 -4 -10 -10z"/>
</g>
</svg>
